<svg xmlns="http://www.w3.org/2000/svg" viewBox="0 0 1100 720" width="1100" height="720">
<rect width="100%" height="100%" fill="white"/>
<style>text{font-family:Arial,sans-serif;font-size:13px;fill:#111827}.axis{stroke:#111827;stroke-width:1}.grid{stroke:#e5e7eb;stroke-width:1}.series{fill:none;stroke-width:2.5}.point{stroke:white;stroke-width:1.5}</style>
<text x="550.0" y="28" text-anchor="middle" font-size="18" font-weight="700">Response time vs throughput</text>
<line class="axis" x1="78" y1="56" x2="78" y2="650"/>
<line class="axis" x1="78" y1="650" x2="1072" y2="650"/>
<text x="575.0" y="698" text-anchor="middle">Requests/sec</text>
<text transform="translate(22 353.0) rotate(-90)" text-anchor="middle">p95 response time, ms</text>
<line class="grid" x1="78" y1="650.0" x2="1072" y2="650.0"/>
<text x="68" y="654.0" text-anchor="end">0</text>
<line class="grid" x1="78" y1="531.2" x2="1072" y2="531.2"/>
<text x="68" y="535.2" text-anchor="end">29</text>
<line class="grid" x1="78" y1="412.4" x2="1072" y2="412.4"/>
<text x="68" y="416.4" text-anchor="end">58</text>
<line class="grid" x1="78" y1="293.6" x2="1072" y2="293.6"/>
<text x="68" y="297.6" text-anchor="end">87</text>
<line class="grid" x1="78" y1="174.8" x2="1072" y2="174.8"/>
<text x="68" y="178.8" text-anchor="end">116</text>
<line class="grid" x1="78" y1="56.0" x2="1072" y2="56.0"/>
<text x="68" y="60.0" text-anchor="end">145</text>
<line class="grid" x1="78.0" y1="56" x2="78.0" y2="650"/>
<text x="78.0" y="672" text-anchor="middle">0</text>
<line class="grid" x1="276.8" y1="56" x2="276.8" y2="650"/>
<text x="276.8" y="672" text-anchor="middle">3,038</text>
<line class="grid" x1="475.6" y1="56" x2="475.6" y2="650"/>
<text x="475.6" y="672" text-anchor="middle">6,076</text>
<line class="grid" x1="674.4" y1="56" x2="674.4" y2="650"/>
<text x="674.4" y="672" text-anchor="middle">9,113</text>
<line class="grid" x1="873.2" y1="56" x2="873.2" y2="650"/>
<text x="873.2" y="672" text-anchor="middle">12,151</text>
<line class="grid" x1="1072.0" y1="56" x2="1072.0" y2="650"/>
<text x="1072.0" y="672" text-anchor="middle">15,189</text>
<circle cx="90" cy="48" r="5" fill="#2563eb"/>
<text x="100" y="52">Silta</text>
<circle cx="200" cy="48" r="5" fill="#dc2626"/>
<text x="210" y="52">FastAPI</text>
<path class="series" d="M 491.1 641.2 L 568.3 609.6 L 528.1 464.1" stroke="#2563eb"/>
<circle class="point" cx="491.1" cy="641.2" r="4" fill="#2563eb"><title>Silta GET /rates c=10, rps=6312, p95=2.16ms</title></circle>
<circle class="point" cx="568.3" cy="609.6" r="4" fill="#2563eb"><title>Silta GET /rates c=50, rps=7491, p95=9.87ms</title></circle>
<circle class="point" cx="528.1" cy="464.1" r="4" fill="#2563eb"><title>Silta GET /rates c=200, rps=6878, p95=45.36ms</title></circle>
<path class="series" d="M 274.3 633.3 L 258.1 559.7 L 251.3 146.6" stroke="#dc2626" stroke-dasharray="7 5"/>
<circle class="point" cx="274.3" cy="633.3" r="4" fill="#dc2626"><title>FastAPI GET /rates c=10, rps=3000, p95=4.06ms</title></circle>
<circle class="point" cx="258.1" cy="559.7" r="4" fill="#dc2626"><title>FastAPI GET /rates c=50, rps=2751, p95=22.03ms</title></circle>
<circle class="point" cx="251.3" cy="146.6" r="4" fill="#dc2626"><title>FastAPI GET /rates c=200, rps=2649, p95=122.83ms</title></circle>
<path class="series" d="M 762.7 644.3 L 985.4 628.9 L 998.4 575.1" stroke="#2563eb"/>
<circle class="point" cx="762.7" cy="644.3" r="5" fill="#2563eb"><title>Silta GET /rates/EUR/USD c=10, rps=10462, p95=1.38ms</title></circle>
<circle class="point" cx="985.4" cy="628.9" r="5" fill="#2563eb"><title>Silta GET /rates/EUR/USD c=50, rps=13866, p95=5.16ms</title></circle>
<circle class="point" cx="998.4" cy="575.1" r="5" fill="#2563eb"><title>Silta GET /rates/EUR/USD c=200, rps=14064, p95=18.28ms</title></circle>
<path class="series" d="M 571.9 642.0 L 743.1 621.1 L 698.2 506.2" stroke="#dc2626" stroke-dasharray="7 5"/>
<circle class="point" cx="571.9" cy="642.0" r="5" fill="#dc2626"><title>FastAPI GET /rates/EUR/USD c=10, rps=7547, p95=1.96ms</title></circle>
<circle class="point" cx="743.1" cy="621.1" r="5" fill="#dc2626"><title>FastAPI GET /rates/EUR/USD c=50, rps=10163, p95=7.06ms</title></circle>
<circle class="point" cx="698.2" cy="506.2" r="5" fill="#dc2626"><title>FastAPI GET /rates/EUR/USD c=200, rps=9477, p95=35.10ms</title></circle>
<text x="1072" y="52" text-anchor="end">Endpoints: GET /rates / GET /rates/EUR/USD</text>
</svg>
