<svg xmlns="http://www.w3.org/2000/svg" viewBox="0 0 1100 720" width="1100" height="720">
<rect width="100%" height="100%" fill="white"/>
<style>text{font-family:Arial,sans-serif;font-size:13px;fill:#111827}.axis{stroke:#111827;stroke-width:1}.grid{stroke:#e5e7eb;stroke-width:1}.series{fill:none;stroke-width:2.5}.point{stroke:white;stroke-width:1.5}</style>
<text x="550.0" y="28" text-anchor="middle" font-size="18" font-weight="700">Response time vs throughput</text>
<line class="axis" x1="78" y1="56" x2="78" y2="650"/>
<line class="axis" x1="78" y1="650" x2="1072" y2="650"/>
<text x="575.0" y="698" text-anchor="middle">Requests/sec</text>
<text transform="translate(22 353.0) rotate(-90)" text-anchor="middle">p95 response time, ms</text>
<line class="grid" x1="78" y1="650.0" x2="1072" y2="650.0"/>
<text x="68" y="654.0" text-anchor="end">0</text>
<line class="grid" x1="78" y1="531.2" x2="1072" y2="531.2"/>
<text x="68" y="535.2" text-anchor="end">1</text>
<line class="grid" x1="78" y1="412.4" x2="1072" y2="412.4"/>
<text x="68" y="416.4" text-anchor="end">2</text>
<line class="grid" x1="78" y1="293.6" x2="1072" y2="293.6"/>
<text x="68" y="297.6" text-anchor="end">3</text>
<line class="grid" x1="78" y1="174.8" x2="1072" y2="174.8"/>
<text x="68" y="178.8" text-anchor="end">4</text>
<line class="grid" x1="78" y1="56.0" x2="1072" y2="56.0"/>
<text x="68" y="60.0" text-anchor="end">5</text>
<line class="grid" x1="78.0" y1="56" x2="78.0" y2="650"/>
<text x="78.0" y="672" text-anchor="middle">0</text>
<line class="grid" x1="276.8" y1="56" x2="276.8" y2="650"/>
<text x="276.8" y="672" text-anchor="middle">37,132</text>
<line class="grid" x1="475.6" y1="56" x2="475.6" y2="650"/>
<text x="475.6" y="672" text-anchor="middle">74,264</text>
<line class="grid" x1="674.4" y1="56" x2="674.4" y2="650"/>
<text x="674.4" y="672" text-anchor="middle">111,396</text>
<line class="grid" x1="873.2" y1="56" x2="873.2" y2="650"/>
<text x="873.2" y="672" text-anchor="middle">148,528</text>
<line class="grid" x1="1072.0" y1="56" x2="1072.0" y2="650"/>
<text x="1072.0" y="672" text-anchor="middle">185,659</text>
<circle cx="90" cy="48" r="5" fill="#2563eb"/>
<text x="100" y="52">Silta</text>
<circle cx="200" cy="48" r="5" fill="#dc2626"/>
<text x="210" y="52">FastAPI</text>
<path class="series" d="M 217.6 644.2 L 656.2 634.5 L 944.7 580.2 L 998.4 508.8" stroke="#2563eb"/>
<circle class="point" cx="217.6" cy="644.2" r="4" fill="#2563eb"><title>Silta POST /echo c=1, rps=26071, p95=0.05ms</title></circle>
<circle class="point" cx="656.2" cy="634.5" r="4" fill="#2563eb"><title>Silta POST /echo c=10, rps=108003, p95=0.13ms</title></circle>
<circle class="point" cx="944.7" cy="580.2" r="4" fill="#2563eb"><title>Silta POST /echo c=50, rps=161881, p95=0.59ms</title></circle>
<circle class="point" cx="998.4" cy="508.8" r="4" fill="#2563eb"><title>Silta POST /echo c=100, rps=171907, p95=1.19ms</title></circle>
<path class="series" d="M 152.5 639.1 L 220.9 596.3 L 228.3 406.0 L 231.8 146.6" stroke="#dc2626" stroke-dasharray="7 5"/>
<circle class="point" cx="152.5" cy="639.1" r="4" fill="#dc2626"><title>FastAPI POST /echo c=1, rps=13906, p95=0.09ms</title></circle>
<circle class="point" cx="220.9" cy="596.3" r="4" fill="#dc2626"><title>FastAPI POST /echo c=10, rps=26693, p95=0.45ms</title></circle>
<circle class="point" cx="228.3" cy="406.0" r="4" fill="#dc2626"><title>FastAPI POST /echo c=50, rps=28081, p95=2.06ms</title></circle>
<circle class="point" cx="231.8" cy="146.6" r="4" fill="#dc2626"><title>FastAPI POST /echo c=100, rps=28726, p95=4.26ms</title></circle>
<text x="1072" y="52" text-anchor="end">Endpoints: POST /echo</text>
</svg>
