<svg xmlns="http://www.w3.org/2000/svg" viewBox="0 0 1100 720" width="1100" height="720">
<rect width="100%" height="100%" fill="white"/>
<style>text{font-family:Arial,sans-serif;font-size:13px;fill:#111827}.axis{stroke:#111827;stroke-width:1}.grid{stroke:#e5e7eb;stroke-width:1}.series{fill:none;stroke-width:2.5}.point{stroke:white;stroke-width:1.5}</style>
<text x="550.0" y="28" text-anchor="middle" font-size="18" font-weight="700">Response time vs throughput</text>
<line class="axis" x1="78" y1="56" x2="78" y2="650"/>
<line class="axis" x1="78" y1="650" x2="1072" y2="650"/>
<text x="575.0" y="698" text-anchor="middle">Requests/sec</text>
<text transform="translate(22 353.0) rotate(-90)" text-anchor="middle">p95 response time, ms</text>
<line class="grid" x1="78" y1="650.0" x2="1072" y2="650.0"/>
<text x="68" y="654.0" text-anchor="end">0</text>
<line class="grid" x1="78" y1="531.2" x2="1072" y2="531.2"/>
<text x="68" y="535.2" text-anchor="end">5</text>
<line class="grid" x1="78" y1="412.4" x2="1072" y2="412.4"/>
<text x="68" y="416.4" text-anchor="end">9</text>
<line class="grid" x1="78" y1="293.6" x2="1072" y2="293.6"/>
<text x="68" y="297.6" text-anchor="end">14</text>
<line class="grid" x1="78" y1="174.8" x2="1072" y2="174.8"/>
<text x="68" y="178.8" text-anchor="end">19</text>
<line class="grid" x1="78" y1="56.0" x2="1072" y2="56.0"/>
<text x="68" y="60.0" text-anchor="end">23</text>
<line class="grid" x1="78.0" y1="56" x2="78.0" y2="650"/>
<text x="78.0" y="672" text-anchor="middle">0</text>
<line class="grid" x1="276.8" y1="56" x2="276.8" y2="650"/>
<text x="276.8" y="672" text-anchor="middle">2,649</text>
<line class="grid" x1="475.6" y1="56" x2="475.6" y2="650"/>
<text x="475.6" y="672" text-anchor="middle">5,297</text>
<line class="grid" x1="674.4" y1="56" x2="674.4" y2="650"/>
<text x="674.4" y="672" text-anchor="middle">7,946</text>
<line class="grid" x1="873.2" y1="56" x2="873.2" y2="650"/>
<text x="873.2" y="672" text-anchor="middle">10,595</text>
<line class="grid" x1="1072.0" y1="56" x2="1072.0" y2="650"/>
<text x="1072.0" y="672" text-anchor="middle">13,243</text>
<circle cx="90" cy="48" r="5" fill="#2563eb"/>
<text x="100" y="52">Silta</text>
<circle cx="200" cy="48" r="5" fill="#dc2626"/>
<text x="210" y="52">FastAPI</text>
<path class="series" d="M 779.4 645.7 L 998.4 534.5 L 920.9 146.6" stroke="#2563eb"/>
<circle class="point" cx="779.4" cy="645.7" r="4" fill="#2563eb"><title>Silta GET /media/image.bmp c=1, rps=9344, p95=0.17ms</title></circle>
<circle class="point" cx="998.4" cy="534.5" r="4" fill="#2563eb"><title>Silta GET /media/image.bmp c=25, rps=12262, p95=4.50ms</title></circle>
<circle class="point" cx="920.9" cy="146.6" r="4" fill="#2563eb"><title>Silta GET /media/image.bmp c=100, rps=11230, p95=19.62ms</title></circle>
<path class="series" d="M 602.1 644.0 L 786.6 539.5 L 739.3 217.8" stroke="#dc2626" stroke-dasharray="7 5"/>
<circle class="point" cx="602.1" cy="644.0" r="4" fill="#dc2626"><title>FastAPI GET /media/image.bmp c=1, rps=6983, p95=0.23ms</title></circle>
<circle class="point" cx="786.6" cy="539.5" r="4" fill="#dc2626"><title>FastAPI GET /media/image.bmp c=25, rps=9440, p95=4.31ms</title></circle>
<circle class="point" cx="739.3" cy="217.8" r="4" fill="#dc2626"><title>FastAPI GET /media/image.bmp c=100, rps=8811, p95=16.84ms</title></circle>
<text x="1072" y="52" text-anchor="end">Endpoints: GET /media/image.bmp</text>
</svg>
