<svg xmlns="http://www.w3.org/2000/svg" viewBox="0 0 1100 720" width="1100" height="720">
<rect width="100%" height="100%" fill="white"/>
<style>text{font-family:Arial,sans-serif;font-size:13px;fill:#111827}.axis{stroke:#111827;stroke-width:1}.grid{stroke:#e5e7eb;stroke-width:1}.series{fill:none;stroke-width:2.5}.point{stroke:white;stroke-width:1.5}</style>
<text x="550.0" y="28" text-anchor="middle" font-size="18" font-weight="700">Response time vs throughput</text>
<line class="axis" x1="78" y1="56" x2="78" y2="650"/>
<line class="axis" x1="78" y1="650" x2="1072" y2="650"/>
<text x="575.0" y="698" text-anchor="middle">Requests/sec</text>
<text transform="translate(22 353.0) rotate(-90)" text-anchor="middle">p95 response time, ms</text>
<line class="grid" x1="78" y1="650.0" x2="1072" y2="650.0"/>
<text x="68" y="654.0" text-anchor="end">0</text>
<line class="grid" x1="78" y1="531.2" x2="1072" y2="531.2"/>
<text x="68" y="535.2" text-anchor="end">791</text>
<line class="grid" x1="78" y1="412.4" x2="1072" y2="412.4"/>
<text x="68" y="416.4" text-anchor="end">1582</text>
<line class="grid" x1="78" y1="293.6" x2="1072" y2="293.6"/>
<text x="68" y="297.6" text-anchor="end">2373</text>
<line class="grid" x1="78" y1="174.8" x2="1072" y2="174.8"/>
<text x="68" y="178.8" text-anchor="end">3165</text>
<line class="grid" x1="78" y1="56.0" x2="1072" y2="56.0"/>
<text x="68" y="60.0" text-anchor="end">3956</text>
<line class="grid" x1="78.0" y1="56" x2="78.0" y2="650"/>
<text x="78.0" y="672" text-anchor="middle">0</text>
<line class="grid" x1="276.8" y1="56" x2="276.8" y2="650"/>
<text x="276.8" y="672" text-anchor="middle">141</text>
<line class="grid" x1="475.6" y1="56" x2="475.6" y2="650"/>
<text x="475.6" y="672" text-anchor="middle">282</text>
<line class="grid" x1="674.4" y1="56" x2="674.4" y2="650"/>
<text x="674.4" y="672" text-anchor="middle">423</text>
<line class="grid" x1="873.2" y1="56" x2="873.2" y2="650"/>
<text x="873.2" y="672" text-anchor="middle">564</text>
<line class="grid" x1="1072.0" y1="56" x2="1072.0" y2="650"/>
<text x="1072.0" y="672" text-anchor="middle">705</text>
<circle cx="90" cy="48" r="5" fill="#2563eb"/>
<text x="100" y="52">Silta</text>
<circle cx="200" cy="48" r="5" fill="#dc2626"/>
<text x="210" y="52">FastAPI</text>
<path class="series" d="M 205.2 647.6 L 391.9 632.2 L 343.2 567.5 L 327.6 146.6" stroke="#2563eb"/>
<circle class="point" cx="205.2" cy="647.6" r="4" fill="#2563eb"><title>Silta GET /ch/rates c=1, rps=90, p95=15.95ms</title></circle>
<circle class="point" cx="391.9" cy="632.2" r="4" fill="#2563eb"><title>Silta GET /ch/rates c=10, rps=223, p95=118.73ms</title></circle>
<circle class="point" cx="343.2" cy="567.5" r="4" fill="#2563eb"><title>Silta GET /ch/rates c=50, rps=188, p95=549.13ms</title></circle>
<circle class="point" cx="327.6" cy="146.6" r="4" fill="#2563eb"><title>Silta GET /ch/rates c=200, rps=177, p95=3352.32ms</title></circle>
<path class="series" d="M 179.7 647.1 L 378.1 637.1 L 352.6 580.9 L 392.9 466.4" stroke="#dc2626" stroke-dasharray="7 5"/>
<circle class="point" cx="179.7" cy="647.1" r="4" fill="#dc2626"><title>FastAPI GET /ch/rates c=1, rps=72, p95=19.64ms</title></circle>
<circle class="point" cx="378.1" cy="637.1" r="4" fill="#dc2626"><title>FastAPI GET /ch/rates c=10, rps=213, p95=86.11ms</title></circle>
<circle class="point" cx="352.6" cy="580.9" r="4" fill="#dc2626"><title>FastAPI GET /ch/rates c=50, rps=195, p95=460.31ms</title></circle>
<circle class="point" cx="392.9" cy="466.4" r="4" fill="#dc2626"><title>FastAPI GET /ch/rates c=200, rps=223, p95=1222.38ms</title></circle>
<path class="series" d="M 187.2 647.4 L 361.6 633.5 L 388.3 593.4 L 355.0 264.9" stroke="#2563eb"/>
<circle class="point" cx="187.2" cy="647.4" r="5" fill="#2563eb"><title>Silta GET /ch/rates/1000 c=1, rps=77, p95=17.51ms</title></circle>
<circle class="point" cx="361.6" cy="633.5" r="5" fill="#2563eb"><title>Silta GET /ch/rates/1000 c=10, rps=201, p95=109.97ms</title></circle>
<circle class="point" cx="388.3" cy="593.4" r="5" fill="#2563eb"><title>Silta GET /ch/rates/1000 c=50, rps=220, p95=377.00ms</title></circle>
<circle class="point" cx="355.0" cy="264.9" r="5" fill="#2563eb"><title>Silta GET /ch/rates/1000 c=200, rps=197, p95=2564.70ms</title></circle>
<path class="series" d="M 210.6 647.9 L 322.1 635.2 L 357.0 585.2 L 388.4 409.6" stroke="#dc2626" stroke-dasharray="7 5"/>
<circle class="point" cx="210.6" cy="647.9" r="5" fill="#dc2626"><title>FastAPI GET /ch/rates/1000 c=1, rps=94, p95=13.94ms</title></circle>
<circle class="point" cx="322.1" cy="635.2" r="5" fill="#dc2626"><title>FastAPI GET /ch/rates/1000 c=10, rps=173, p95=98.67ms</title></circle>
<circle class="point" cx="357.0" cy="585.2" r="5" fill="#dc2626"><title>FastAPI GET /ch/rates/1000 c=50, rps=198, p95=431.59ms</title></circle>
<circle class="point" cx="388.4" cy="409.6" r="5" fill="#dc2626"><title>FastAPI GET /ch/rates/1000 c=200, rps=220, p95=1600.91ms</title></circle>
<path class="series" d="M 244.0 648.2 L 800.3 643.6 L 862.9 614.8 L 998.4 567.1" stroke="#2563eb"/>
<circle class="point" cx="244.0" cy="648.2" r="6" fill="#2563eb"><title>Silta GET /ch/rates/EUR/USD c=1, rps=118, p95=11.69ms</title></circle>
<circle class="point" cx="800.3" cy="643.6" r="6" fill="#2563eb"><title>Silta GET /ch/rates/EUR/USD c=10, rps=513, p95=42.72ms</title></circle>
<circle class="point" cx="862.9" cy="614.8" r="6" fill="#2563eb"><title>Silta GET /ch/rates/EUR/USD c=50, rps=557, p95=234.17ms</title></circle>
<circle class="point" cx="998.4" cy="567.1" r="6" fill="#2563eb"><title>Silta GET /ch/rates/EUR/USD c=200, rps=653, p95=551.98ms</title></circle>
<path class="series" d="M 322.9 648.9 L 926.1 646.0 L 836.9 616.3 L 902.1 557.8" stroke="#dc2626" stroke-dasharray="7 5"/>
<circle class="point" cx="322.9" cy="648.9" r="6" fill="#dc2626"><title>FastAPI GET /ch/rates/EUR/USD c=1, rps=174, p95=7.43ms</title></circle>
<circle class="point" cx="926.1" cy="646.0" r="6" fill="#dc2626"><title>FastAPI GET /ch/rates/EUR/USD c=10, rps=602, p95=26.91ms</title></circle>
<circle class="point" cx="836.9" cy="616.3" r="6" fill="#dc2626"><title>FastAPI GET /ch/rates/EUR/USD c=50, rps=539, p95=224.68ms</title></circle>
<circle class="point" cx="902.1" cy="557.8" r="6" fill="#dc2626"><title>FastAPI GET /ch/rates/EUR/USD c=200, rps=585, p95=613.91ms</title></circle>
<text x="1072" y="52" text-anchor="end">Endpoints: GET /ch/rates / GET /ch/rates/1000 / GET /ch/rates/EUR/USD</text>
</svg>
